<svg xmlns="http://www.w3.org/2000/svg" viewBox="0 0 128 128" role="img" aria-label="EEI tactical eagle mark">
  <defs>
    <linearGradient id="metal" x1="0" y1="0" x2="1" y2="1">
      <stop offset="0" stop-color="#f6f8fb"/>
      <stop offset="0.22" stop-color="#b9c2cc"/>
      <stop offset="0.48" stop-color="#eef3f8"/>
      <stop offset="0.78" stop-color="#8795a3"/>
      <stop offset="1" stop-color="#ffffff"/>
    </linearGradient>
    <linearGradient id="cobalt" x1="0" y1="0" x2="0" y2="1">
      <stop offset="0" stop-color="#2c89d1"/>
      <stop offset="1" stop-color="#0e4b82"/>
    </linearGradient>
    <filter id="glow" x="-50%" y="-50%" width="200%" height="200%">
      <feGaussianBlur stdDeviation="2.2" result="b"/>
      <feMerge><feMergeNode in="b"/><feMergeNode in="SourceGraphic"/></feMerge>
    </filter>
  </defs>
  <rect x="5" y="5" width="118" height="118" rx="16" fill="#02050a" stroke="#6f7f91" stroke-width="2"/>
  <path d="M13 19h102M13 109h102" stroke="#1d5d99" stroke-width="2" opacity=".55"/>
  <path d="M18 26l22 2 20 13-17-1 28 24-31-12-10 19 23-8 12 24 8-26 36-23-33 6 13-17-28 13-21-15z" fill="url(#metal)" filter="url(#glow)"/>
  <path d="M69 46l22-10-9 12 21-4-28 18-8 25-8-22-22 7 11-19 18 6-16-17z" fill="#05080d" opacity=".72"/>
  <path d="M69 46l22-10-9 12 21-4-28 18-8 25-8-22-22 7 11-19 18 6-16-17z" fill="none" stroke="#cfd8e3" stroke-width="2" stroke-linejoin="round"/>
  <path d="M76 49l13-4-12 9z" fill="url(#cobalt)"/>
  <path d="M82 48l8-3-4 6z" fill="#f7fbff"/>
  <path d="M28 92h72" stroke="url(#cobalt)" stroke-width="4" stroke-linecap="round"/>
  <text x="64" y="113" text-anchor="middle" font-family="Arial, Helvetica, sans-serif" font-size="13" font-weight="900" letter-spacing="2" fill="#d7dde5">EEI</text>
</svg>
